<?xml version="1.0" encoding="UTF-8"?><svg id="_圖層_1" xmlns="http://www.w3.org/2000/svg" viewBox="0 0 44.95 43.81"><path d="M12.54,35.54v7.78L.33,31.44h8.02c2.31,0,4.2,1.83,4.2,4.09ZM28.15,27.79c-.41,0-.85-.03-1.27-.06-4-.35-7.63-2.24-10.22-5.32-2.59-3.08-3.81-6.99-3.46-10.98.25-2.84,1.3-5.45,2.92-7.62H3.38c-1.86,0-3.38,1.52-3.38,3.37v21.83h8.35c3.65,0,6.63,2.92,6.63,6.53v8.27h13.02c1.86,0,3.37-1.5,3.37-3.37v-13.01c-1.06.23-2.14.37-3.22.37ZM15.48,11.63c.57-6.52,6.14-11.63,12.69-11.63.37,0,.74.02,1.11.05,3.38.29,6.45,1.89,8.65,4.5,2.18,2.61,3.23,5.91,2.93,9.31-.17,1.93-.77,3.75-1.76,5.41l4.82,5.51c.75.89,1.11,2.02,1,3.16-.1,1.15-.64,2.2-1.52,2.93-.79.65-1.77,1.01-2.78,1.01-.12,0-.25,0-.38-.02-1.14-.1-2.18-.64-2.93-1.53l-4.9-5.6c-1.38.49-2.81.74-4.26.74-.35,0-.72-.01-1.08-.05-3.39-.3-6.45-1.9-8.65-4.51-2.18-2.61-3.22-5.92-2.93-9.3ZM27.38,22.01c.27.02.54.03.82.03,4.78,0,8.86-3.74,9.27-8.51.45-5.12-3.36-9.64-8.47-10.09-.28-.02-.55-.03-.83-.03-4.78,0-8.85,3.73-9.26,8.5-.46,5.12,3.35,9.65,8.47,10.1Z"/></svg>