<?xml version="1.0" encoding="UTF-8"?>
<svg xmlns="http://www.w3.org/2000/svg" version="1.1" viewBox="0 0 85 85">
  <defs>
    <style>
      .cls-1 {
        fill: #a87e7b;
      }
    </style>
  </defs>
  <!-- Generator: Adobe Illustrator 28.7.5, SVG Export Plug-In . SVG Version: 1.2.0 Build 176)  -->
  <g>
    <g id="_圖層_1" data-name="圖層_1">
      <g id="Layer_1">
        <path class="cls-1" d="M42.5,0C19,0,0,19,0,42.5s19,42.5,42.5,42.5,42.5-19,42.5-42.5S66,0,42.5,0ZM42.3,66.3s-2,1.3-3.3,1.3h-.2c-.3,0-.6,0-.9-.2h-.4c-2.4-.7-3.6-3-3-5.4l3.3-13.2,1.5-6c1.4-5.5-4.4,1.2-5.5-1.4-.8-1.7,4.5-5.2,8.3-7.9,0,0,2-1.3,3.3-1.3h.2c.3,0,.6,0,.9.2h.4c2.4.7,3.8,3.1,3.2,5.4l-3.3,13.2-1.5,6c-1.4,5.5,4.3-1.2,5.4,1.4.8,1.7-4.6,5.2-8.4,7.9ZM50.6,25c-.8,3.3-4.2,5.3-7.4,4.5-3.3-.8-5.3-4.2-4.5-7.4.8-3.3,4.2-5.3,7.4-4.5,3.3.8,5.3,4.2,4.5,7.4Z"/>
      </g>
    </g>
  </g>
</svg>