<?xml version="1.0" encoding="UTF-8"?>
<svg xmlns="http://www.w3.org/2000/svg" version="1.1" viewBox="0 0 306.5 90">
  <defs>
    <style>
      .cls-1 {
        fill: #a77e7b;
      }

      .cls-2 {
        fill: #fff;
      }

      .cls-3 {
        fill: #e4b5ae;
      }
    </style>
  </defs>
  <!-- Generator: Adobe Illustrator 28.7.5, SVG Export Plug-In . SVG Version: 1.2.0 Build 176)  -->
  <g>
    <g id="logo_">
      <g>
        <path class="cls-3" d="M25.9,37.6h-9c0,10,8.2,18.2,18.2,18.2v-9c-5.1,0-9.2-4.1-9.2-9.2"/>
        <path class="cls-1" d="M53.4,37.6h-9c0,5.1-4.1,9.2-9.2,9.2v9c10,0,18.2-8.2,18.2-18.2"/>
        <path class="cls-1" d="M35.2,6.7V2.1c-2.8,2.8-5.8,5.8-7.3,9-.7,1.2-1,2.6-1,4,0,4.6,3.7,8.4,8.3,8.4,4.6,0,8.4-3.7,8.4-8.3,0-4.6-3.7-8.4-8.3-8.4"/>
        <rect class="cls-1" x="2" y="28.6" width="33.1" height="9"/>
        <rect class="cls-3" x="35.1" y="28.6" width="33.1" height="9"/>
        <path class="cls-1" d="M35.1,62.1v8.7c-7.8,9.6-19.7,15.9-33.1,16.1v-9c11.8-.3,22.1-6.5,27.7-15.8h5.4Z"/>
        <path class="cls-3" d="M35.1,62.1v8.7c7.8,9.6,19.7,15.9,33.1,16.1v-9c-11.8-.3-22.1-6.5-27.7-15.8h-5.4Z"/>
        <path class="cls-2" d="M136.3,31.8h26.6c.3,0,.5.2.5.5v28.1c0,.3-.2.5-.5.5h-26.6c-.3,0-.5-.2-.5-.5v-28.1c0-.3.2-.5.5-.5M134.5,63.5h30.1c1.1,0,1.9-.9,1.9-1.9v-30.5c0-1.1-.9-1.9-1.9-1.9h-30.1c-1,0-1.9.9-1.9,1.9v30.5c0,1,.9,1.9,1.9,1.9"/>
        <path class="cls-2" d="M156.1,48.8h-13c-.3,0-.5-.2-.5-.5v-2.5c0-.3.2-.5.5-.5h13c.3,0,.5.2.5.5v2.5c0,.3-.2.5-.5.5M157.6,43.3h-16.1c-1,0-1.9.9-1.9,1.9v3.8c0,1,.9,1.9,1.9,1.9h1.6c-1.1,2.8-2.7,5.6-4.8,8.6h3.1c.9-1.3,1.7-2.7,2.4-4,.7-1.4,1.4-2.9,2.2-4.6h1.7v8.6h2.9v-8.6h7.1c1,0,1.9-.9,1.9-1.9v-3.8c0-1-.9-1.9-1.9-1.9"/>
        <polygon class="cls-2" points="151 37.3 159.7 37.3 159.7 35.2 151 35.2 151 33.2 148 33.2 148 35.2 139.3 35.2 139.3 37.3 148 37.3 148 39.4 138.3 39.4 138.3 41.6 160.8 41.6 160.8 39.4 151 39.4 151 37.3"/>
        <path class="cls-2" d="M159.6,53.6c.2-.5.4-1.1.6-1.8h-2.6c-.2.7-.5,1.5-1,2.5-.3-.4-.5-.9-.8-1.3-.3-.4-.5-.8-.8-1.2h-2.8c.8,1.3,1.6,2.6,2.3,3.8.7,1.2,1.4,2.5,2.2,4h3l-2.5-4.2h1.6c.3-.6.5-1.2.7-1.7"/>
        <path class="cls-2" d="M116.5,44.8c.9,2.8,2.4,8.3,2.9,9.4h3.4c-.6-1.4-2.8-9.1-3.4-10.6h-2.8v-2.4c2.1-1.7,4.8-4,5.9-4.7v-4.2c-1.2,1.1-3.9,3.2-5.9,4.8v-8.4h-3.2v32.1c0,1,.9,1.9,1.9,1.9h8.2v-3h-6.3c-.3,0-.6-.3-.6-.6v-14.3Z"/>
        <polygon class="cls-2" points="101 36.2 101 33.2 96 33.2 96 28.7 92.8 28.7 92.8 33.2 87.8 33.2 87.8 36.2 92.8 36.2 92.8 62.7 96 62.7 96 36.2 101 36.2"/>
        <path class="cls-2" d="M107.7,41.6c-.9-2.7-2.5-8.1-3-9.4h-3.2c.7,1.9,2.8,9.2,3.2,10.6h3v3.7c-2.1,1.7-4.5,3.6-5.5,4.4v3.9c.9-.6,3.4-2.7,5.5-4.4v3.3c0,2.1-.3,4-.9,5.6-.6,1.6-1.3,2.3-2.1,3.3h4.2c.5-.9.9-1.6,1.3-3.2.4-1.6.6-3.5.6-5.7v-25.1h-3.2v12.9Z"/>
        <path class="cls-2" d="M87.6,61.2h3.4c.4-1.1.9-21.6,1-22.9h-3.2c0,2.7-.4,20.5-1.3,22.9"/>
        <path class="cls-2" d="M97,38.3c.2,1.3.4,19.6.8,20.6h3.4c-.9-2.4-1-18-1.1-20.6h-3.2Z"/>
        <path class="cls-2" d="M252.3,29.6h-6.6v2.2h4.8c.3,0,.5.2.5.5v2h-5.3v2.2h5.3v1.7h-5.3v2.2h5.3v1.9h-24.2v-1.9h5.3v-2.2h-5.3v-1.7h5.3v-2.2h-5.3v-2c0-.3.2-.5.5-.5h4.8v-2.3h-5.3c0,.1-1.3.1-1.3.1-1,0-1.9.9-1.9,1.9v10.8h-.6c-1,0-1.9.9-1.9,1.9v2.8h3.2v-1.2c0-.3.2-.5.5-.5h28.2c.3,0,.5.2.5.5v1.2h3.2v-2.8c0-1-.9-1.9-1.9-1.9h-.6v-10.8c0-1-.9-1.9-1.9-1.9"/>
        <polygon class="cls-2" points="236.8 41.3 238.9 40 241.1 41.3 244.8 41.3 240.8 38.8 244.8 36.3 241.1 36.3 238.9 37.6 236.8 36.3 233 36.3 237 38.8 233 41.3 236.8 41.3"/>
        <polygon class="cls-2" points="236.8 35.3 238.9 34 241.1 35.3 244.8 35.3 240.8 32.8 244.8 30.2 241.1 30.2 238.9 31.6 236.8 30.2 233 30.2 237 32.8 233 35.3 236.8 35.3"/>
        <path class="cls-2" d="M251.9,47.2h-26.7v3h18.5c-2.1,2-5,3.6-5,3.6h-17.5v3h16.9v1.4c0,1.2-.5,2.2-1.2,3-.7.8-1.8,1.6-3.3,2.3h6.1c.9-.6,1.6-1.4,2-2.4.4-1,.6-2,.6-3v-1.3h14.5v-3h-12.2c2.5-1.1,7.4-6.6,7.4-6.6"/>
        <path class="cls-2" d="M200.7,42.4c-1.5,2.3-3.2,4.5-5.2,6.7-2-2.2-3.8-4.4-5.5-6.7-1.6-2.3-3-4.7-4.2-7.2h18.4c-1,2.5-2.2,4.9-3.6,7.2M176.8,32.2v3.1h5.2c1.4,3.1,3.1,6.1,5,8.8,1.9,2.7,3.9,5.3,6.2,7.7-2.1,2.1-4.3,4.1-6.8,6.1-2.5,1.9-5.1,3.9-7.9,5.7h5.7c2.1-1.5,4.1-3,6-4.5,1.9-1.5,3.7-3.1,5.4-4.8,1.7,1.6,3.4,3.2,5.2,4.8,1.8,1.5,3.6,3,5.5,4.5h5.6c-2.5-1.9-4.9-3.9-7.2-5.8-2.3-1.9-4.5-3.9-6.5-6,2.1-2.4,4.1-4.9,5.8-7.6,1.7-2.7,3.2-5.6,4.4-8.9h4.7v-3.1h-36.2Z"/>
        <rect class="cls-2" x="192.9" y="28.6" width="3.9" height="3.6"/>
        <path class="cls-2" d="M286.5,60.1v-5h10.3c.3,0,.5.2.5.5v4.6c0,.3-.2.5-.5.5h-9.9c-.3,0-.5-.2-.5-.5M287,42.2h9.3c.3,0,.5.2.5.5v2.5c0,.3-.2.5-.5.5h-9.8v-3c0-.3.2-.5.5-.5M286.5,52v-3.3h11.6c1,0,1.9-.9,1.9-1.9v-5.8c0-1-.9-1.9-1.9-1.9h-12.9c-1,0-1.9.9-1.9,1.9v20.6c0,1,.9,1.9,1.9,1.9h13.4c1,0,1.9-.8,1.9-1.9v-7.8c0-1.1-.8-1.9-1.9-1.9h-12.1Z"/>
        <path class="cls-2" d="M275.1,29.6h-3.9c-.9,1.3-3.7,6.5-5.4,8.5h4.3c.8-1.1,2.5-4.1,3.7-6.4,1.2,2.2,2.9,5.3,3.7,6.4h4.3c-1.7-2.1-4.5-7.2-5.4-8.5h-1.4Z"/>
        <path class="cls-2" d="M277.7,42.7v1.9h-7.6v-1.9c0-.3.2-.5.5-.5h6.7c.3,0,.5.2.5.5M277.2,49.9h-7.1v-2.3h7.6v1.8c0,.3-.2.5-.5.5M268.8,39.2c-1,0-1.9.9-1.9,1.9v20.6c0,1,.9,1.9,1.9,1.9h10.1c1.2,0,2.1-1.1,1.9-2.2-.4-2.3-.9-5.6-1.2-6.8h-3.2c.3,1.2.6,3.5.9,5.5,0,.3-.2.5-.5.5h-6.2c-.3,0-.5-.2-.5-.5v-7.2h8.9c1,0,1.9-.9,1.9-1.9v-9.9c0-1-.9-1.9-1.9-1.9h-10.2Z"/>
        <path class="cls-2" d="M283.9,31.5c-1,0-1.9.9-1.9,1.9v4.2h3.2v-2.6c0-.3.2-.5.5-.5h12.5c.3,0,.5.2.5.5v2.6h3.2v-4.2c0-1-.9-1.9-1.9-1.9h-16Z"/>
        <rect class="cls-2" x="290" y="29.7" width="3.9" height="1.8"/>
        <rect class="cls-2" x="271.9" y="36.6" width="3.9" height="2.5"/>
        <path class="cls-2" d="M90,79.7v7s0,0,0,0h1.1s0,0,0,0v-7h2.6s0,0,0,0v-1s0,0,0,0h-6.3s0,0,0,0v1s0,0,0,0h2.6Z"/>
        <path class="cls-2" d="M97,83.7l1.5-3.6,1.5,3.6h-3ZM99,78.6h-1.1l-3.5,8.1h0s0,0,0,0h1.3l.8-2h3.8l.8,2h1.3s-3.4-8.1-3.4-8.1Z"/>
        <path class="cls-2" d="M135.7,83.7l1.5-3.6,1.5,3.6h-3ZM141.2,86.7l-3.4-8.1h-1.1l-3.5,8.1h0s1.3,0,1.3,0l.8-2h3.8l.8,2h1.3s0,0,0,0Z"/>
        <path class="cls-2" d="M144.9,86.7s0,0,0,0v-6.6l4.4,6.6s0,0,0,0h1.4s0,0,0,0v-8s0,0,0,0h-1.1s0,0,0,0v6.5l-4.4-6.6s0,0,0,0h-1.4s0,0,0,0v8s0,0,0,0h1.1Z"/>
        <path class="cls-2" d="M125.4,86c.3.3.6.5,1,.7.4.2.8.2,1.2.2s.9,0,1.2-.2c.4-.1.7-.4,1-.7.3-.3.5-.6.7-1,.2-.4.2-.8.2-1.3v-5.1s0,0,0,0h-1.1s0,0,0,0v4.9c0,.2,0,.5-.1.8,0,.3-.2.5-.3.7-.2.2-.4.4-.6.5-.3.1-.6.2-.9.2s-.7,0-.9-.2c-.3-.1-.5-.3-.6-.5-.1-.2-.3-.5-.3-.7,0-.3-.1-.5-.1-.8v-4.9s0,0,0,0h-1.1s0,0,0,0v5.1c0,.5,0,.9.2,1.3.2.4.4.7.7,1"/>
        <path class="cls-2" d="M111.6,83.9c-.2.4-.4.7-.6,1-.2.3-.6.5-.9.7-.4.2-.8.2-1.2.2s-.9,0-1.2-.2c-.4-.2-.7-.4-1-.7-.2-.3-.5-.6-.6-1-.2-.4-.2-.8-.2-1.2s0-.8.2-1.2c.1-.4.3-.7.6-1,.3-.3.6-.5,1-.7.4-.2.8-.2,1.2-.2s.9,0,1.2.2c.3.2.7.4.9.7.2.2.5.6.6,1,.1.4.2.8.2,1.2s0,.9-.2,1.2M112.7,80.9c-.2-.5-.5-1-.9-1.3-.4-.4-.8-.7-1.3-.9-.5-.2-1.1-.3-1.7-.3s-1.2.1-1.7.3c-.5.2-1,.5-1.3.9-.4.4-.7.8-.9,1.3-.2.5-.3,1.1-.3,1.7s.1,1.2.3,1.7c.2.5.5,1,.9,1.3.3.4.8.7,1.3.9.5.2,1.1.3,1.7.3s1.2-.1,1.7-.3c.5-.2,1-.5,1.3-.9.4-.4.7-.8.9-1.3.2-.5.3-1.1.3-1.7s0-1.1-.3-1.7"/>
        <path class="cls-2" d="M118,86.7s0,0,0,0h1.1s0,0,0,0v-3.4s3-4.6,3-4.6c0,0,0,0,0,0,0,0,0,0,0,0h-1.3s0,0,0,0l-2.2,3.5-2.2-3.5s0,0,0,0h-1.4s0,0,0,0c0,0,0,0,0,0l3,4.6v3.4Z"/>
        <path class="cls-2" d="M160.7,86.6h3.9s0,0,0,0v-1s0,0,0,0h-3.4c-.1,0-.3-.1-.3-.3v-6.7s0,0,0,0h-1.1s0,0,0,0v7.1c0,.5.4.9.9.9"/>
        <path class="cls-2" d="M167.3,78.5h1.1s0,0,0,0v8.1s0,0,0,0h-1.1s0,0,0,0v-8s0,0,0,0Z"/>
        <path class="cls-2" d="M173.7,86.6h1.1s0,0,0,0v-7h2.6s0,0,0,0v-1s0,0,0,0h-6.3s0,0,0,0v1s0,0,0,0h2.6v7s0,0,0,0"/>
        <path class="cls-2" d="M198.7,83.6l1.5-3.7h0l1.5,3.7h-3ZM200.8,78.5h-1l-3.5,8h1.3l.8-2h3.8l.8,2h1.3l-3.4-8Z"/>
        <path class="cls-2" d="M211.2,79.5v-1s0,0,0,0h-6.3s0,0,0,0v1s0,0,0,0h2.6v7s0,0,0,0h1.1s0,0,0,0v-7h2.6s0,0,0,0"/>
        <path class="cls-2" d="M219.8,84.9c.2-.4.2-.8.2-1.3v-5.1s0,0,0,0h-1.1s0,0,0,0v4.9c0,.3,0,.5-.1.8,0,.3-.2.5-.3.7-.2.2-.4.4-.6.5-.2.1-.6.2-.9.2s-.7,0-.9-.2c-.2-.1-.5-.3-.6-.5-.2-.2-.3-.5-.3-.7,0-.3-.1-.5-.1-.8v-4.9s0,0,0,0h-1.1s0,0,0,0v5.1c0,.5,0,.9.2,1.3.2.4.4.7.7,1,.3.3.6.5,1,.6.4.2.8.2,1.2.2s.9,0,1.2-.2c.4-.1.7-.4,1-.6.3-.3.5-.6.7-1"/>
        <path class="cls-2" d="M185.6,86.6v-1s0,0,0,0h-4c-.2,0-.3-.1-.3-.3v-2.2h3.8s0,0,0,0v-1s0,0,0,0h-3.8v-2.1c0-.1.1-.3.3-.3h3.8s0,0,0,0v-1s0,0,0,0h-4.3c-.5,0-.9.4-.9.9v6.2c0,.5.4.9.9.9h4.5s0,0,0,0"/>
        <path class="cls-2" d="M237.5,86.6v-1s0,0,0,0h-4c-.1,0-.3-.1-.3-.3v-2.2h3.8s0,0,0,0v-1s0,0,0,0h-3.8v-2.1c0-.1.1-.3.3-.3h3.8s0,0,0,0v-1s0,0,0,0h-4.3c-.5,0-.9.4-.9.9v6.2c0,.5.4.9.9.9h4.5s0,0,0,0"/>
        <path class="cls-2" d="M189.8,82v-2.4c0,0,0-.1.2-.1h1.9c.2,0,.4.1.5.2.2.1.3.2.4.4,0,.2.1.4.1.7s0,.5-.1.7c-.1.2-.3.3-.4.4-.1.1-.3.2-.5.2h-2.1ZM192.2,82.9c.2,0,.5-.1.8-.2.2-.1.5-.3.6-.5.2-.2.3-.4.4-.7,0-.2.1-.5.1-.7s0-.5-.1-.8c0-.2-.2-.5-.4-.7-.2-.2-.5-.4-.8-.5-.4-.1-.8-.2-1.2-.2h-2.1c-.5,0-.7.5-.7.9v7.1h1.1v-3.5h1.2l2.1,3.5h1.3l-2.2-3.7Z"/>
        <path class="cls-2" d="M224.6,82v-2.4s0,0,.2,0h1.9c.2,0,.4,0,.5.2.2.1.3.2.4.4,0,.2.1.3.1.6s0,.5-.1.7c-.1.2-.2.3-.4.4,0,0-.3.2-.5.2h-2ZM227,82.9c.3,0,.5-.1.7-.3.3-.1.5-.3.7-.5h0c.1-.2.2-.5.3-.7.1-.2.1-.5.1-.7s0-.5,0-.8c0-.2-.2-.5-.4-.7h0c-.2-.2-.5-.5-.8-.6-.3-.1-.7-.2-1.3-.2h-2c-.5,0-.8.5-.8.9v7.1h0s1.1,0,1.1,0c0,0,0,0,0,0v-3.5h1.2l2,3.5h0s1.4,0,1.4,0h0c0,0-2.3-3.7-2.3-3.7Z"/>
        <path class="cls-2" d="M251.5,78.6s0,0,0,0l-2.5,6.1-2.6-6.1s0,0,0,0h-1.6s0,0,0,0v8s0,0,0,0h1.1s0,0,0,0v-6.5l2.7,6.5s0,0,0,0h.7s0,0,0,0l2.7-6.5v6.5s0,0,0,0h1.1s0,0,0,0v-8s0,0,0,0h-1.6Z"/>
        <path class="cls-2" d="M261.9,78.6s0,0,0,0v4.9c0,.3,0,.5-.1.8,0,.3-.2.5-.3.7-.1.2-.4.4-.6.5-.3.1-.6.2-.9.2s-.7,0-.9-.2c-.3-.1-.5-.3-.6-.5-.2-.2-.3-.5-.3-.7,0-.3-.1-.5-.1-.8v-4.9s0,0,0,0h-1.1s0,0,0,0v5.1c0,.5,0,.9.2,1.3.2.4.4.7.7,1,.3.3.6.5,1,.7.4.2.8.2,1.2.2s.9,0,1.2-.2c.4-.2.7-.4,1-.7.3-.3.5-.6.7-1,.2-.4.2-.8.2-1.3v-5.1s0,0,0,0h-1.1Z"/>
        <path class="cls-2" d="M270.5,82.5c-.3-.2-.6-.3-1-.4-.3,0-.6-.2-1-.3-.3-.1-.5-.3-.7-.4-.2-.2-.3-.4-.3-.8s0-.2,0-.4c0-.1.1-.3.2-.4.1-.1.3-.2.5-.3.2,0,.4-.1.7-.1s.6,0,.8.2c.2.1.4.3.6.5,0,0,0,0,0,0h0s0,0,0,0l.9-.8s0,0,0,0c-.3-.4-.7-.6-1.1-.8-.4-.1-.8-.2-1.3-.2s-.9,0-1.3.2c-.3.1-.6.3-.9.6-.2.2-.4.5-.5.7-.1.3-.2.5-.2.8,0,.5,0,1,.3,1.3.2.3.4.6.7.7.3.2.6.3,1,.4.3.1.7.2,1,.3.3.1.5.2.7.4.2.2.3.4.3.7s0,.4-.1.6c0,.2-.2.3-.4.4-.2.1-.3.2-.5.2-.2,0-.4,0-.5,0-.3,0-.6,0-.9-.2-.3-.1-.5-.4-.7-.6,0,0,0,0,0,0h0s0,0,0,0l-.9.8s0,0,0,0c.3.4.6.7,1.1.9.5.2,1,.3,1.5.3s.8,0,1.1-.2c.3-.1.6-.3.9-.5.3-.2.5-.5.6-.8.2-.3.2-.7.2-1.1s-.1-.9-.3-1.2c-.2-.3-.4-.5-.7-.7"/>
        <path class="cls-2" d="M288.8,78.6s0,0,0,0v4.9c0,.2,0,.5-.1.8,0,.3-.2.5-.3.7-.2.2-.4.4-.6.5-.3.1-.6.2-.9.2s-.7,0-.9-.2c-.3-.1-.5-.3-.6-.5-.2-.2-.3-.5-.3-.7,0-.3-.1-.5-.1-.8v-4.9s0,0,0,0h-1.1s0,0,0,0v5.1c0,.5,0,.9.2,1.3.2.4.4.7.7,1,.3.3.6.5,1,.7.4.2.8.2,1.2.2s.8,0,1.2-.2c.4-.2.7-.4,1-.7.3-.3.5-.6.7-1,.2-.4.2-.8.2-1.3v-5.1s0,0,0,0h-1.1Z"/>
        <path class="cls-2" d="M300.3,78.6s0,0,0,0l-2.5,6.1-2.6-6.1s0,0,0,0h-1.6s0,0,0,0v8s0,0,0,0h1.1s0,0,0,0v-6.5l2.7,6.5s0,0,0,0h.7s0,0,0,0l2.7-6.5v6.5s0,0,0,0h1.1s0,0,0,0v-8s0,0,0,0h-1.6Z"/>
        <path class="cls-2" d="M276.4,85.6c-.1,0-.3-.1-.3-.3v-2.2h3.8s0,0,0,0v-1s0,0,0,0h-3.8v-2.1c0-.1.1-.3.3-.3h3.8s0,0,0,0v-1s0,0,0,0h-4.3c-.5,0-.9.4-.9.9v6.2c0,.5.4.9.9.9h4.5s0,0,0,0v-1s0,0,0,0h-4Z"/>
      </g>
    </g>
  </g>
</svg>