<?xml version="1.0" encoding="UTF-8"?>
<svg xmlns="http://www.w3.org/2000/svg" version="1.1" viewBox="0 0 446 128">
  <defs>
    <style>
      .cls-1 {
        fill: #a77e7b;
      }

      .cls-2 {
        fill: #7d7d7d;
      }

      .cls-3 {
        fill: #e4b5ae;
      }

      .cls-4 {
        fill: #717071;
      }
    </style>
  </defs>
  <!-- Generator: Adobe Illustrator 28.7.5, SVG Export Plug-In . SVG Version: 1.2.0 Build 176)  -->
  <g>
    <g id="_圖層_1" data-name="圖層_1">
      <path class="cls-3" d="M36.8,53.5h-13.1c0,14.6,11.9,26.5,26.5,26.5v-13.1c-7.4,0-13.4-6-13.4-13.4"/>
      <path class="cls-1" d="M76.6,53.5h-13.1c0,7.4-6,13.4-13.4,13.4v13.1c14.6,0,26.5-11.9,26.5-26.5"/>
      <path class="cls-1" d="M50.2,8.6V1.9c-4,4-8.4,8.4-10.7,13-.9,1.7-1.5,3.7-1.5,5.8,0,6.7,5.4,12.1,12.1,12.2,6.7,0,12.1-5.4,12.2-12.1,0-6.7-5.4-12.1-12.1-12.2"/>
      <rect class="cls-1" x="2" y="40.4" width="48.1" height="13.1"/>
      <rect class="cls-3" x="50.1" y="40.4" width="48.1" height="13.1"/>
      <path class="cls-1" d="M50.1,89.1v12.7c-11.3,14-28.6,23.1-48.1,23.4v-13.1c17.1-.4,32.1-9.5,40.3-22.9h7.8Z"/>
      <path class="cls-3" d="M50.1,89.1v12.7c11.3,14,28.6,23.1,48.1,23.4v-13.1c-17.1-.4-32.1-9.5-40.3-22.9h-7.8Z"/>
      <path class="cls-4" d="M197.2,45.1h38.6c.4,0,.7.3.7.7v40.8c0,.4-.3.7-.7.7h-38.6c-.4,0-.7-.3-.7-.7v-40.8c0-.4.3-.7.7-.7M194.6,91.1h43.7c1.5,0,2.8-1.2,2.8-2.8v-44.3c0-1.5-1.2-2.8-2.8-2.8h-43.7c-1.5,0-2.8,1.2-2.8,2.8v44.3c0,1.5,1.2,2.8,2.8,2.8"/>
      <path class="cls-4" d="M225.9,69.8h-18.9c-.4,0-.7-.3-.7-.7v-3.7c0-.4.3-.7.7-.7h18.9c.4,0,.7.3.7.7v3.7c0,.4-.3.7-.7.7M228.1,61.7h-23.4c-1.5,0-2.8,1.2-2.8,2.8v5.5c0,1.5,1.2,2.8,2.8,2.8h2.4c-1.6,4-3.9,8.2-7,12.5h4.5c1.3-2,2.4-3.9,3.4-5.9,1-2,2.1-4.2,3.1-6.7h2.4v12.5h4.1v-12.5h10.3c1.5,0,2.8-1.2,2.8-2.8v-5.5c0-1.5-1.2-2.8-2.8-2.8"/>
      <polygon class="cls-4" points="218.6 53.1 231.3 53.1 231.3 49.9 218.6 49.9 218.6 47 214.2 47 214.2 49.9 201.5 49.9 201.5 53.1 214.2 53.1 214.2 56.1 200.1 56.1 200.1 59.3 232.8 59.3 232.8 56.1 218.6 56.1 218.6 53.1"/>
      <path class="cls-4" d="M231,76.7c.3-.8.6-1.7.9-2.7h-3.8c-.3,1-.8,2.2-1.4,3.6-.4-.6-.8-1.3-1.2-1.9-.4-.6-.8-1.2-1.1-1.7h-4.1c1.2,1.9,2.3,3.7,3.4,5.5,1,1.7,2.1,3.7,3.2,5.8h4.4l-3.6-6.1h2.3c.4-.9.7-1.7,1-2.4"/>
      <path class="cls-4" d="M168.5,63.9c1.3,4,3.5,12,4.1,13.7h5c-.9-2-4.1-13.2-5-15.4h-4.1v-3.5c3-2.4,7-5.8,8.6-6.8v-6.1c-1.7,1.5-5.6,4.6-8.6,7v-12.3h-4.6v46.6c0,1.5,1.2,2.8,2.8,2.8h11.9v-4.4h-9.2c-.5,0-.9-.4-.9-.9v-20.8Z"/>
      <polygon class="cls-4" points="145.8 51.4 145.8 47 138.6 47 138.6 40.5 133.9 40.5 133.9 47 126.6 47 126.6 51.4 133.9 51.4 133.9 89.9 138.6 89.9 138.6 51.4 145.8 51.4"/>
      <path class="cls-4" d="M155.6,59.3c-1.3-3.9-3.6-11.8-4.3-13.6h-4.7c1.1,2.8,4,13.4,4.7,15.4h4.3v5.3c-3,2.4-6.6,5.3-8,6.5v5.7c1.4-.9,5-3.9,8-6.4v4.8c0,3-.5,5.8-1.4,8.1-.9,2.4-1.9,3.4-3,4.8h6.2c.7-1.4,1.3-2.3,1.9-4.7.6-2.3.9-5.1.9-8.2v-36.5h-4.6v18.8Z"/>
      <path class="cls-4" d="M126.4,87.7h5c.6-1.6,1.2-31.3,1.5-33.2h-4.6c0,3.9-.5,29.8-1.9,33.2"/>
      <path class="cls-4" d="M140,54.5c.2,1.9.6,28.4,1.2,30h5c-1.4-3.5-1.5-26.1-1.6-30h-4.6Z"/>
      <path class="cls-4" d="M365.8,41.8h-9.6v3.2h7c.4,0,.7.3.7.7v2.9h-7.7v3.2h7.7v2.4h-7.7v3.2h7.7v2.8h-35.2v-2.8h7.7v-3.2h-7.7v-2.4h7.7v-3.2h-7.7v-3c0-.4.3-.7.7-.7l7-.2v-3.2l-7.7.2h0s-1.9,0-1.9,0c-1.5,0-2.8,1.2-2.8,2.8v15.6h-.8c-1.5,0-2.8,1.2-2.8,2.8v4.1h4.6v-1.7c0-.4.3-.7.7-.7h41c.4,0,.7.3.7.7v1.7h4.6v-4.1c0-1.5-1.2-2.8-2.8-2.8h-.8v-15.6c0-1.5-1.2-2.8-2.8-2.8"/>
      <polygon class="cls-4" points="343.2 58.9 346.3 57 349.4 58.9 354.9 58.9 349.1 55.2 354.9 51.5 349.4 51.5 346.3 53.5 343.2 51.5 337.7 51.5 343.6 55.2 337.7 58.9 343.2 58.9"/>
      <polygon class="cls-4" points="343.2 50.1 346.3 48.2 349.4 50.1 354.9 50.1 349.1 46.4 354.9 42.7 349.4 42.7 346.3 44.7 343.2 42.7 337.7 42.7 343.6 46.4 337.7 50.1 343.2 50.1"/>
      <path class="cls-4" d="M365.2,67.4h-38.8v4.4h26.9c-3.1,3-7.3,5.3-7.3,5.3h-25.5v4.4h24.5v2c0,1.7-.7,3.2-1.7,4.3-1,1.2-2.6,2.3-4.8,3.3h8.9c1.4-.9,2.3-2,2.9-3.5.5-1.5.8-2.9.8-4.3v-1.9h21v-4.4h-17.7c3.6-1.7,10.7-9.7,10.7-9.7"/>
      <path class="cls-4" d="M290.8,60.5c-2.1,3.3-4.7,6.6-7.5,9.8-2.9-3.2-5.6-6.4-7.9-9.8-2.4-3.3-4.4-6.8-6-10.4h26.8c-1.4,3.6-3.2,7.1-5.3,10.4M256,45.7v4.4h7.5c2.1,4.6,4.5,8.8,7.2,12.8,2.7,3.9,5.7,7.7,8.9,11.2-3,3-6.3,6-9.9,8.8-3.6,2.8-7.4,5.6-11.5,8.4h8.3c3-2.1,5.9-4.3,8.7-6.5,2.7-2.2,5.4-4.5,7.8-6.9,2.4,2.4,4.9,4.7,7.5,6.9,2.6,2.2,5.2,4.4,8,6.5h8.1c-3.7-2.8-7.2-5.6-10.5-8.4-3.3-2.8-6.5-5.7-9.4-8.7,3.1-3.5,5.9-7.2,8.4-11.1,2.5-3.9,4.6-8.2,6.4-12.9h6.9v-4.4h-52.6Z"/>
      <rect class="cls-4" x="279.5" y="40.4" width="5.7" height="5.2"/>
      <path class="cls-4" d="M415.5,86.1v-7.3h15c.4,0,.7.3.7.7v6.6c0,.4-.3.7-.7.7h-14.3c-.4,0-.7-.3-.7-.7M416.2,60.2h13.6c.4,0,.7.3.7.7v3.7c0,.4-.3.7-.7.7h-14.3v-4.4c0-.4.3-.7.7-.7M415.5,74.4v-4.7h16.8c1.5,0,2.8-1.2,2.8-2.8v-8.4c0-1.5-1.2-2.8-2.8-2.8h-18.7c-1.5,0-2.8,1.2-2.8,2.8v29.9c0,1.5,1.2,2.8,2.8,2.8h19.4c1.5,0,2.8-1.2,2.8-2.8v-11.3c0-1.5-1.2-2.8-2.7-2.8h-17.6Z"/>
      <path class="cls-4" d="M399,41.9h-5.7c-1.4,1.9-5.4,9.4-7.8,12.4h6.3c1.2-1.5,3.6-6,5.4-9.2,1.8,3.2,4.2,7.7,5.4,9.2h6.3c-2.5-3-6.5-10.5-7.8-12.4h-2Z"/>
      <path class="cls-4" d="M402.7,60.9v2.7h-11.1v-2.7c0-.4.3-.7.7-.7h9.7c.4,0,.7.3.7.7M402,71.3h-10.4v-3.3h11.1v2.6c0,.4-.3.7-.7.7M389.7,55.8c-1.5,0-2.8,1.2-2.8,2.8v29.9c0,1.5,1.2,2.8,2.8,2.8h14.7c1.7,0,3-1.6,2.7-3.2-.6-3.4-1.3-8.1-1.7-9.9h-4.7c.4,1.7.8,5,1.3,8,0,.4-.3.8-.7.8h-9.1c-.4,0-.7-.3-.7-.7v-10.4h12.9c1.5,0,2.8-1.2,2.8-2.8v-14.4c0-1.5-1.2-2.8-2.8-2.8h-14.8Z"/>
      <path class="cls-4" d="M411.7,44.6c-1.5,0-2.8,1.2-2.8,2.8v6h4.6v-3.7c0-.4.3-.7.7-.7h18.2c.4,0,.7.3.7.7v3.7h4.6v-6c0-1.5-1.2-2.8-2.8-2.8h-23.3Z"/>
      <rect class="cls-4" x="420.5" y="42.1" width="5.7" height="2.6"/>
      <rect class="cls-4" x="394.3" y="52.1" width="5.7" height="3.7"/>
      <path class="cls-2" d="M130,114.6v10.2s0,0,0,0h1.6s0,0,0,0v-10.2h3.7s0,0,0,0v-1.5s0,0,0,0h-9.1s0,0,0,0v1.5s0,0,0,0h3.7Z"/>
      <path class="cls-2" d="M140,120.5l2.2-5.3,2.1,5.3h-4.3ZM143,113h-1.6l-5.1,11.7h0c0,0,0,0,0,0h1.9l1.1-2.9h5.5l1.2,2.9h1.9c0,0-5-11.8-5-11.8Z"/>
      <path class="cls-2" d="M196.4,120.5l2.2-5.3,2.1,5.3h-4.3ZM204.3,124.8l-5-11.7h-1.6l-5.1,11.7h0c0,0,1.9,0,1.9,0l1.1-2.9h5.5l1.2,2.9h1.9c0,0,0,0,0,0Z"/>
      <path class="cls-2" d="M209.7,124.8s0,0,0,0v-9.5l6.5,9.5s0,0,0,0h2s0,0,0,0v-11.7s0,0,0,0h-1.6s0,0,0,0v9.5l-6.4-9.5s0,0,0,0h-2.1s0,0,0,0v11.7s0,0,0,0h1.6Z"/>
      <path class="cls-2" d="M181.3,123.8c.4.4.9.7,1.5.9.6.2,1.2.3,1.8.3s1.2-.1,1.8-.3c.6-.2,1-.5,1.5-.9.4-.4.7-.9,1-1.5.2-.6.4-1.2.4-1.9v-7.4s0,0,0,0h-1.6s0,0,0,0v7.2c0,.4,0,.7-.2,1.1,0,.4-.3.8-.5,1.1-.2.3-.5.6-.9.8-.4.2-.8.3-1.4.3s-1,0-1.4-.3c-.4-.2-.7-.5-.9-.8-.2-.3-.4-.7-.5-1.1-.1-.4-.1-.8-.1-1.1v-7.2s0,0,0,0h-1.6s0,0,0,0v7.4c0,.7.1,1.3.4,1.9.2.6.6,1,1,1.5"/>
      <path class="cls-2" d="M161.2,120.7c-.2.6-.5,1-.9,1.5-.4.4-.8.7-1.3,1-.5.2-1.1.4-1.8.4s-1.3-.1-1.8-.4c-.5-.2-1-.6-1.4-1-.4-.4-.7-.8-.8-1.5-.2-.5-.3-1.1-.3-1.8s0-1.2.3-1.8c.2-.5.5-1.1.8-1.5.4-.4.8-.8,1.4-1,.5-.2,1.1-.4,1.8-.4s1.3.1,1.8.4c.5.2,1,.6,1.3,1,.4.4.7.8.9,1.5.2.5.3,1.1.3,1.8s-.1,1.3-.3,1.8M162.9,116.5c-.3-.7-.7-1.4-1.3-1.9-.5-.6-1.2-1-1.9-1.3-.8-.3-1.6-.5-2.5-.5s-1.8.2-2.5.5c-.8.3-1.5.7-1.9,1.3-.5.5-1,1.1-1.3,1.9-.3.8-.5,1.6-.5,2.4s.2,1.7.5,2.5c.3.8.7,1.4,1.3,1.9.5.6,1.1,1,1.9,1.3.7.3,1.6.5,2.5.5s1.7-.2,2.5-.5c.7-.3,1.4-.7,1.9-1.3.5-.5,1-1.2,1.3-1.9.3-.8.4-1.6.4-2.5s-.1-1.6-.4-2.4"/>
      <path class="cls-2" d="M170.6,124.8s0,0,0,0h1.6s0,0,0,0v-5s4.4-6.7,4.4-6.7c0,0,0,0,0,0,0,0,0,0,0,0h-1.9s0,0,0,0l-3.2,5.1-3.1-5.1s0,0,0,0h-2s0,0,0,0c0,0,0,0,0,0l4.4,6.7v5Z"/>
      <path class="cls-2" d="M232.7,124.7h5.6s0,0,0,0v-1.5s0,0,0,0h-4.9c-.2,0-.4-.2-.4-.4v-9.8s0,0,0,0h-1.6s0,0,0,0v10.4c0,.8.6,1.4,1.4,1.4"/>
      <rect class="cls-2" x="242.2" y="112.9" width="1.7" height="11.8" rx="0" ry="0"/>
      <path class="cls-2" d="M251.6,124.7h1.6s0,0,0,0v-10.2h3.7s0,0,0,0v-1.5s0,0,0,0h-9.1s0,0,0,0v1.5s0,0,0,0h3.7v10.2s0,0,0,0"/>
      <path class="cls-2" d="M287.8,120.4l2.2-5.4h0l2.1,5.4h-4.4ZM290.9,112.9h-1.5l-5.1,11.7h1.9l1.1-2.8h5.5l1.1,2.8h1.9l-5-11.7Z"/>
      <path class="cls-2" d="M306,114.4v-1.5s0,0,0,0h-9.1s0,0,0,0v1.5s0,0,0,0h3.7v10.2s0,0,0,0h1.6s0,0,0,0v-10.2h3.7s0,0,0,0"/>
      <path class="cls-2" d="M318.5,122.2c.2-.6.4-1.2.4-1.9v-7.4s0,0,0,0h-1.6s0,0,0,0v7.2c0,.4,0,.7-.1,1.1,0,.4-.3.7-.5,1.1-.2.3-.5.6-.9.8-.4.2-.8.3-1.4.3s-1,0-1.4-.3c-.4-.2-.7-.5-.9-.8-.2-.3-.4-.7-.5-1.1,0-.4-.1-.8-.1-1.1v-7.2s0,0,0,0h-1.6s0,0,0,0v7.4c0,.7.1,1.3.3,1.9.2.6.6,1,1,1.5.4.4.9.7,1.5.9.5.2,1.2.3,1.8.3s1.3-.1,1.8-.3c.6-.2,1-.5,1.5-.9.4-.4.7-.9,1-1.5"/>
      <path class="cls-2" d="M268.8,124.6v-1.5s0,0,0,0h-5.8c-.2,0-.4-.2-.4-.4v-3.3h5.5s0,0,0,0v-1.5s0,0,0,0h-5.5v-3c0-.2.2-.4.4-.4h5.5s0,0,0,0v-1.5s0,0,0,0h-6.2c-.8,0-1.4.6-1.4,1.4v9.1c0,.8.6,1.4,1.4,1.4h6.5s0,0,0,0"/>
      <path class="cls-2" d="M344.2,124.6v-1.5s0,0,0,0h-5.8c-.2,0-.4-.2-.4-.4v-3.3h5.5s0,0,0,0v-1.5s0,0,0,0h-5.5v-3c0-.2.2-.4.4-.4h5.5s0,0,0,0v-1.5s0,0,0,0h-6.2c-.8,0-1.4.6-1.4,1.4v9.1c0,.8.6,1.4,1.4,1.4h6.5s0,0,0,0"/>
      <path class="cls-2" d="M274.9,118.1v-3.5c0-.1.1-.2.3-.2h2.7c.4,0,.6.2.8.2.2.2.4.4.6.6.1.3.2.5.2,1s0,.7-.2,1c-.2.3-.4.5-.6.5-.2.2-.4.2-.8.4h-3ZM278.4,119.3c.4,0,.8-.2,1.1-.3.4-.2.7-.5.9-.7.2-.3.5-.6.6-1,0-.4.2-.7.2-1.1s0-.7-.2-1.1c-.1-.3-.2-.7-.5-1-.2-.3-.7-.6-1.1-.8-.5-.2-1.1-.3-1.8-.3h-3.1c-.7.1-1.1.7-1.1,1.3v10.3h1.6v-5.1h1.8l3,5.1h1.9l-3.3-5.3Z"/>
      <path class="cls-2" d="M325.5,118v-3.4c0,0,0-.1.2-.1h2.7c.3,0,.5.1.8.2.2.2.4.3.5.6.1.2.2.5.2.9s0,.7-.2,1c-.2.3-.4.4-.6.5-.1.1-.4.2-.7.3h-3ZM329,119.3c.5-.1.8-.2,1.1-.4.5-.2.7-.4,1-.7h0c.2-.4.4-.7.5-1,.2-.4.2-.7.2-1.1s0-.7-.1-1.1c0-.4-.4-.7-.6-1h0c-.3-.3-.7-.7-1.2-.8-.5-.2-1.1-.2-1.9-.2h-3c-.7,0-1.2.7-1.2,1.3v10.3h0c0,0,1.6,0,1.6,0,0,0,0,0,0,0v-5.1h1.7l3,5.1h0c0,0,2.1,0,2.1,0h0c0-.1-3.3-5.3-3.3-5.3Z"/>
      <path class="cls-2" d="M364.5,113s0,0,0,0l-3.7,8.8-3.7-8.8s0,0,0,0h-2.4s0,0,0,0v11.7s0,0,0,0h1.6s0,0,0,0v-9.5l3.9,9.5s0,0,0,0h1.1s0,0,0,0l3.9-9.5v9.5s0,0,0,0h1.6s0,0,0,0v-11.7s0,0,0,0h-2.4Z"/>
      <path class="cls-2" d="M379.8,113s0,0,0,0v7.2c0,.4,0,.7-.1,1.1,0,.4-.3.7-.5,1.1-.2.3-.5.6-.9.8-.4.2-.8.3-1.4.3s-1,0-1.4-.3c-.4-.2-.7-.5-.9-.8-.2-.3-.4-.7-.5-1.1,0-.4-.1-.7-.1-1.1v-7.2s0,0,0,0h-1.6s0,0,0,0v7.4c0,.7.1,1.3.4,1.9.2.6.6,1.1,1,1.5.4.4.9.7,1.5.9.6.2,1.2.3,1.8.3s1.2-.1,1.8-.3c.6-.2,1.1-.5,1.5-.9.4-.4.7-.9,1-1.5.2-.6.4-1.2.4-1.9v-7.4s0,0,0,0h-1.6Z"/>
      <path class="cls-2" d="M392.2,118.8c-.4-.2-.9-.4-1.4-.6-.5-.1-.9-.3-1.4-.4-.4-.2-.8-.4-1.1-.6-.3-.2-.4-.6-.4-1.1s0-.4.1-.6c0-.2.2-.4.4-.6.2-.2.4-.3.7-.4.3-.1.6-.2,1.1-.2s.9,0,1.2.3c.4.2.6.4.8.7,0,0,0,0,0,0h0s0,0,0,0l1.3-1.2s0,0,0,0c-.4-.5-1-.9-1.6-1.1-.6-.2-1.2-.3-1.8-.3s-1.3.1-1.8.3c-.5.2-.9.5-1.2.8-.3.3-.6.7-.7,1.1-.2.4-.2.8-.2,1.1,0,.8.1,1.4.4,1.8.3.4.7.8,1.1,1.1.4.3.9.5,1.4.6.5.1,1,.3,1.4.5.4.2.8.4,1,.6.3.2.4.6.4,1s0,.6-.2.8c-.1.2-.3.4-.5.6-.2.2-.5.3-.7.4-.3,0-.5.1-.8.1-.5,0-.9,0-1.4-.3-.4-.2-.8-.5-1.1-.9,0,0,0,0,0,0h0s0,0,0,0l-1.3,1.1s0,0,0,0c.4.6.9,1,1.6,1.2.7.3,1.4.4,2.1.4s1.1,0,1.6-.2c.5-.2.9-.4,1.3-.7.4-.3.7-.7.9-1.2.2-.5.3-1,.3-1.5s-.1-1.3-.4-1.7c-.3-.4-.7-.7-1.1-1"/>
      <path class="cls-2" d="M418.8,113s0,0,0,0v7.2c0,.4,0,.7-.2,1.1,0,.4-.3.7-.5,1.1-.2.3-.5.6-.9.8-.4.2-.8.3-1.4.3s-1,0-1.4-.3c-.4-.2-.7-.5-.9-.8-.2-.3-.4-.7-.5-1.1,0-.4-.1-.7-.1-1.1v-7.2s0,0,0,0h-1.6s0,0,0,0v7.4c0,.7.1,1.3.4,1.9.2.6.6,1,1,1.5.4.4.9.7,1.5.9.6.2,1.2.3,1.8.3s1.2-.1,1.8-.3c.6-.2,1-.5,1.5-.9.4-.4.7-.9,1-1.5.2-.5.4-1.2.4-1.9v-7.4s0,0,0,0h-1.6Z"/>
      <path class="cls-2" d="M435.6,113s0,0,0,0l-3.7,8.8-3.7-8.8s0,0,0,0h-2.4s0,0,0,0v11.7s0,0,0,0h1.6s0,0,0,0v-9.5l3.9,9.5s0,0,0,0h1.1s0,0,0,0l3.9-9.5v9.5s0,0,0,0h1.6s0,0,0,0v-11.7s0,0,0,0h-2.4Z"/>
      <path class="cls-2" d="M400.8,123.2c-.2,0-.4-.2-.4-.4v-3.3h5.5s0,0,0,0v-1.5s0,0,0,0h-5.5v-3c0-.2.2-.4.4-.4h5.5s0,0,0,0v-1.5s0,0,0,0h-6.2c-.7,0-1.4.6-1.4,1.4v9.1c0,.7.6,1.4,1.4,1.4h6.5s0,0,0,0v-1.5s0,0,0,0h-5.8Z"/>
    </g>
  </g>
</svg>